<svg width="500" height="500" viewBox="0 0 500 500" fill="none" xmlns="http://www.w3.org/2000/svg">
<g opacity="0.8">
<path opacity="0.8" d="M297.52 62.7606V211.211C297.463 212.281 297.154 213.322 296.619 214.249C296.084 215.177 295.337 215.966 294.44 216.551L94.3501 332.291C94.0492 332.478 93.7041 332.581 93.3501 332.591C93.2205 332.606 93.0897 332.606 92.9601 332.591C92.8701 332.572 92.7828 332.541 92.7001 332.501L92.5301 332.401L92.3501 332.281C92.2889 332.236 92.232 332.186 92.1801 332.131C91.9384 331.901 91.7446 331.626 91.6101 331.321C91.3967 330.829 91.2877 330.297 91.2901 329.761V182.001C91.3501 180.929 91.6609 179.887 92.1977 178.958C92.7344 178.029 93.4819 177.238 94.3801 176.651L294.44 61.0006C294.738 60.7933 295.083 60.6614 295.443 60.6162C295.804 60.5709 296.17 60.6136 296.51 60.7406C296.604 60.7828 296.694 60.833 296.78 60.8906C296.859 60.9478 296.927 61.019 296.98 61.1006C297.015 61.1326 297.046 61.1697 297.07 61.2106C297.113 61.2576 297.146 61.3118 297.17 61.3706C297.25 61.4904 297.311 61.622 297.35 61.7606C297.385 61.8506 297.409 61.9447 297.42 62.0406C297.425 62.05 297.427 62.0602 297.427 62.0706C297.427 62.081 297.425 62.0912 297.42 62.1006C297.447 62.1917 297.464 62.2857 297.47 62.3806C297.51 62.4906 297.52 62.6206 297.52 62.7606Z" fill="#455A64"/>
<path opacity="0.8" d="M295.81 61.5601C295.913 61.5606 296.015 61.581 296.11 61.6201H296.17L296.25 61.7301L296.33 61.8401C296.33 61.8401 296.33 61.8401 296.33 61.8901L296.42 62.1801C296.419 62.2034 296.419 62.2268 296.42 62.2501C296.42 62.3501 296.42 62.4501 296.42 62.5601V211.21C296.365 212.105 296.103 212.976 295.656 213.753C295.208 214.53 294.587 215.193 293.84 215.69L93.85 331.43C93.6948 331.53 93.5148 331.586 93.33 331.59H93.12H93.05L92.92 331.5V331.45C92.7766 331.32 92.6639 331.159 92.59 330.98C92.4282 330.615 92.3464 330.219 92.35 329.82V182C92.4047 181.104 92.6672 180.232 93.1167 179.455C93.5662 178.677 94.1905 178.015 94.94 177.52L294.93 61.8401C295.197 61.6773 295.498 61.5812 295.81 61.5601ZM295.81 60.5601C295.325 60.575 294.853 60.7163 294.44 60.9701L94.35 176.66C93.4532 177.246 92.7065 178.035 92.1698 178.962C91.6332 179.89 91.3216 180.93 91.26 182V329.7C91.2577 330.237 91.3667 330.768 91.58 331.26C91.7146 331.565 91.9083 331.84 92.15 332.07C92.2019 332.125 92.2588 332.175 92.32 332.22L92.5 332.34L92.67 332.44C92.7528 332.48 92.8401 332.511 92.93 332.53C93.0596 332.545 93.1905 332.545 93.32 332.53H93.37C93.7241 332.52 94.0692 332.417 94.37 332.23L294.44 216.55C295.337 215.965 296.084 215.176 296.619 214.248C297.154 213.321 297.463 212.28 297.52 211.21V62.7601C297.52 62.6201 297.52 62.4901 297.52 62.3701C297.514 62.2752 297.497 62.1812 297.47 62.0901C297.474 62.0807 297.477 62.0705 297.477 62.0601C297.477 62.0497 297.474 62.0395 297.47 62.0301C297.459 61.9342 297.435 61.8401 297.4 61.7501C297.361 61.6115 297.3 61.4799 297.22 61.3601C297.196 61.3013 297.162 61.2471 297.12 61.2001C297.096 61.1592 297.065 61.1221 297.03 61.0901C296.977 61.0085 296.909 60.9373 296.83 60.8801C296.744 60.8225 296.654 60.7724 296.56 60.7301C296.341 60.6288 296.102 60.5776 295.86 60.5801L295.81 60.5601Z" fill="#455A64"/>
<g opacity="0.7">
<path opacity="0.7" d="M297.52 62.7606V211.211C297.463 212.281 297.154 213.322 296.619 214.249C296.084 215.177 295.337 215.966 294.44 216.551L94.3501 332.291C94.0492 332.478 93.7041 332.581 93.3501 332.591C93.2205 332.606 93.0897 332.606 92.9601 332.591C92.8701 332.572 92.7828 332.541 92.7001 332.501L92.5301 332.401L92.3501 332.281C92.2889 332.236 92.232 332.186 92.1801 332.131C91.9384 331.901 91.7446 331.626 91.6101 331.321C91.3967 330.829 91.2877 330.297 91.2901 329.761V182.001C91.3501 180.929 91.6609 179.887 92.1977 178.958C92.7344 178.029 93.4819 177.238 94.3801 176.651L294.44 61.0006C294.738 60.7933 295.083 60.6614 295.443 60.6162C295.804 60.5709 296.17 60.6136 296.51 60.7406C296.604 60.7828 296.694 60.833 296.78 60.8906C296.859 60.9478 296.927 61.019 296.98 61.1006C297.015 61.1326 297.046 61.1697 297.07 61.2106C297.113 61.2576 297.146 61.3118 297.17 61.3706C297.25 61.4904 297.311 61.622 297.35 61.7606C297.385 61.8506 297.409 61.9447 297.42 62.0406C297.425 62.05 297.427 62.0602 297.427 62.0706C297.427 62.081 297.425 62.0912 297.42 62.1006C297.447 62.1917 297.464 62.2857 297.47 62.3806C297.51 62.4906 297.52 62.6206 297.52 62.7606Z" fill="#455A64"/>
</g>
</g>
<path d="M296.51 60.71C296.17 60.583 295.804 60.5403 295.443 60.5855C295.083 60.6308 294.739 60.7627 294.44 60.97L94.3501 176.66C93.4533 177.246 92.7065 178.035 92.1698 178.962C91.6332 179.89 91.3216 180.93 91.2601 182V192.08L87.3201 189.77V179.77C87.3789 178.702 87.6883 177.663 88.2234 176.737C88.7585 175.811 89.5042 175.024 90.4001 174.44L290.5 58.75C290.82 58.5141 291.199 58.3723 291.594 58.3405C291.99 58.3087 292.387 58.3882 292.74 58.57C293.29 58.9 295.85 60.37 296.51 60.71Z" fill="#B85C38"/>
<path d="M297.52 62.73C297.52 60.79 296.13 60 294.44 60.98L94.34 176.67C93.4441 177.254 92.6985 178.041 92.1634 178.967C91.6283 179.893 91.3188 180.932 91.26 182V192.08L297.52 72.85V62.73Z" fill="#B85C38"/>
<g opacity="0.4">
<path opacity="0.4" d="M294.44 61L94.35 176.67C93.4362 177.245 92.6882 178.048 92.18 179L88.26 176.74C88.7703 175.817 89.5067 175.04 90.4 174.48L290.5 58.75C290.82 58.5158 291.198 58.3741 291.593 58.3406C291.988 58.3071 292.385 58.383 292.74 58.56C293.29 58.9 295.85 60.36 296.5 60.71C296.16 60.5828 295.793 60.5428 295.433 60.5934C295.073 60.6441 294.732 60.7838 294.44 61Z" fill="white"/>
</g>
<path opacity="0.15" d="M87.3201 189.79V179.79C87.3631 178.699 87.6869 177.639 88.2601 176.71L92.1901 178.96C91.6153 179.884 91.2945 180.943 91.2601 182.03V192.11L87.3201 189.79Z" fill="black"/>
<path d="M279 74.21C278.446 74.6503 278.001 75.2122 277.7 75.852C277.398 76.4919 277.247 77.1927 277.26 77.9C277.26 79.38 278.04 80.13 279 79.58C279.554 79.1397 279.999 78.5778 280.3 77.9379C280.602 77.2981 280.753 76.5973 280.74 75.89C280.69 74.41 279.91 73.66 279 74.21Z" fill="#455A64"/>
<path d="M285.22 70.5899C284.666 71.0277 284.221 71.5876 283.919 72.226C283.617 72.8644 283.467 73.5639 283.48 74.2699C283.48 75.7499 284.26 76.4999 285.22 75.9499C285.781 75.5137 286.234 74.9536 286.542 74.3135C286.851 73.6734 287.008 72.9706 287 72.2599C287 70.7799 286.18 69.9999 285.22 70.5899Z" fill="#455A64"/>
<path d="M291.49 67C290.934 67.4388 290.488 68.0003 290.186 68.6406C289.884 69.2808 289.735 69.9823 289.75 70.69C289.75 72.17 290.53 72.92 291.49 72.36C292.045 71.9212 292.492 71.3597 292.794 70.7195C293.095 70.0792 293.245 69.3777 293.23 68.67C293.23 67.15 292.45 66.4 291.49 67Z" fill="#455A64"/>
<path opacity="0.9" d="M92.39 332.3L92.01 332.08C91.73 331.91 91.4 331.73 91.01 331.55L90.49 331.26L89.68 330.8C89.42 330.64 89.19 330.51 89 330.41C88.81 330.31 88.68 330.23 88.62 330.2C88.4153 330.095 88.2348 329.949 88.09 329.77C87.9208 329.587 87.7823 329.377 87.68 329.15C87.4391 328.641 87.3161 328.084 87.32 327.52V189.78L91.26 192.09V329.71C91.2758 330.245 91.3841 330.772 91.58 331.27C91.7146 331.575 91.9083 331.85 92.15 332.08C92.1945 332.142 92.2526 332.194 92.32 332.23L92.39 332.3Z" fill="#37474F"/>
<path d="M158.15 243.47C158.15 243.47 150.87 238.76 149.93 238.73L129.23 238.08L137.46 242.46V242.82L158.15 243.47Z" fill="#263238"/>
<path d="M122.67 257.66V244.66L158.15 200.55V217.75L137.46 242.42V242.78L158.15 243.43V260.63L122.67 257.66Z" fill="#FAFAFA"/>
<path d="M158.15 200.59L149.93 195.85L114.44 239.96L122.67 244.7L158.15 200.59Z" fill="#455A64"/>
<path d="M114.44 239.96V252.92L122.67 257.66V244.7L114.44 239.96Z" fill="#37474F"/>
<path d="M179.63 252.15L168.63 258.51L196.09 157.86L206.71 151.73L179.63 252.15Z" fill="#FAFAFA"/>
<path d="M206.7 151.73L198.47 146.99L187.85 153.12L196.07 157.86L206.7 151.73Z" fill="#455A64"/>
<path d="M187.85 153.12L196.07 157.86L168.62 258.51L160.39 253.77L187.85 153.12Z" fill="#37474F"/>
<path d="M208.94 204.66L217.16 209.4L237.85 184.5L229.63 179.76L208.94 204.66Z" fill="#263238"/>
<path d="M237.85 184.5L217.16 183.72V166.52L252.64 169.66V182.66L217.16 226.66V209.4L237.85 184.86V184.5Z" fill="#FAFAFA"/>
<path d="M208.94 161.78L217.16 166.52L252.65 169.66L244.42 164.92L208.94 161.78Z" fill="#455A64"/>
<path d="M217.16 166.52V183.72L208.94 178.98V161.78" fill="#37474F"/>
<path d="M208.94 204.66L217.16 209.4V226.6L208.94 221.86V204.66Z" fill="#37474F"/>
<g opacity="0.8">
<path opacity="0.8" d="M362.13 88.361V236.811C362.072 237.883 361.762 238.926 361.226 239.856C360.689 240.786 359.94 241.575 359.04 242.161L273.75 291.361C273.451 291.553 273.105 291.657 272.75 291.661C272.619 291.659 272.488 291.642 272.36 291.611L272.09 291.521L271.93 291.421L271.75 291.301C271.689 291.256 271.632 291.206 271.58 291.151C271.335 290.924 271.141 290.648 271.01 290.341C270.797 289.849 270.688 289.318 270.69 288.781V141.081C270.748 140.01 271.057 138.968 271.592 138.039C272.127 137.109 272.873 136.319 273.77 135.731L359 86.581C359.299 86.3704 359.644 86.2358 360.007 86.1888C360.369 86.1417 360.737 86.1837 361.08 86.311C361.172 86.3547 361.259 86.4083 361.34 86.471C361.416 86.5278 361.483 86.5952 361.54 86.671C361.575 86.703 361.606 86.7401 361.63 86.781C361.672 86.828 361.706 86.8822 361.73 86.941C361.815 87.0629 361.879 87.198 361.92 87.341C361.955 87.4275 361.979 87.5183 361.99 87.611C361.994 87.6204 361.997 87.6306 361.997 87.641C361.997 87.6514 361.994 87.6616 361.99 87.671C362.017 87.7621 362.034 87.8561 362.04 87.951C362.12 88.101 362.13 88.231 362.13 88.361Z" fill="#455A64"/>
<path opacity="0.8" d="M360.41 87.16C360.514 87.1582 360.617 87.1822 360.71 87.23H360.77L360.86 87.34L360.93 87.46L361.03 87.75C361.035 87.7731 361.035 87.7969 361.03 87.82C361.036 87.92 361.036 88.0201 361.03 88.12V236.81C360.973 237.706 360.71 238.577 360.26 239.354C359.811 240.131 359.188 240.794 358.44 241.29L273.26 290.5C273.105 290.6 272.925 290.656 272.74 290.66H272.53H272.46L272.33 290.58C272.193 290.446 272.084 290.287 272.01 290.11C271.848 289.745 271.766 289.349 271.77 288.95V141.08C271.825 140.185 272.087 139.314 272.534 138.537C272.982 137.76 273.603 137.097 274.35 136.6L359.64 87.45C359.9 87.2807 360.2 87.1809 360.51 87.16H360.41ZM360.51 86.16C360.025 86.1802 359.553 86.3248 359.14 86.58L273.85 135.73C272.953 136.318 272.207 137.108 271.672 138.038C271.137 138.967 270.828 140.009 270.77 141.08V288.78C270.768 289.317 270.877 289.848 271.09 290.34C271.221 290.647 271.415 290.923 271.66 291.15C271.712 291.205 271.769 291.255 271.83 291.3L272.01 291.42L272.17 291.52L272.44 291.61C272.568 291.641 272.698 291.658 272.83 291.66C273.185 291.655 273.531 291.551 273.83 291.36L359 242.16C359.899 241.573 360.647 240.783 361.183 239.854C361.72 238.924 362.031 237.882 362.09 236.81V88.36C362.09 88.23 362.09 88.1 362.09 87.97C362.084 87.8751 362.067 87.7812 362.04 87.69C362.044 87.6807 362.047 87.6704 362.047 87.66C362.047 87.6497 362.044 87.6394 362.04 87.63C362.029 87.5374 362.005 87.4466 361.97 87.36C361.929 87.2171 361.865 87.0819 361.78 86.96C361.756 86.9012 361.722 86.8471 361.68 86.8C361.656 86.7591 361.625 86.722 361.59 86.69C361.533 86.6142 361.466 86.5469 361.39 86.49C361.309 86.4274 361.222 86.3737 361.13 86.33C360.907 86.2286 360.665 86.1774 360.42 86.18L360.51 86.16Z" fill="#455A64"/>
<g opacity="0.8">
<path opacity="0.8" d="M362.13 88.361V236.811C362.072 237.883 361.762 238.926 361.226 239.856C360.689 240.786 359.94 241.575 359.04 242.161L273.75 291.361C273.451 291.553 273.105 291.657 272.75 291.661C272.619 291.659 272.488 291.642 272.36 291.611L272.09 291.521L271.93 291.421L271.75 291.301C271.689 291.256 271.632 291.206 271.58 291.151C271.335 290.924 271.141 290.648 271.01 290.341C270.797 289.849 270.688 289.318 270.69 288.781V141.081C270.748 140.01 271.057 138.968 271.592 138.039C272.127 137.109 272.873 136.319 273.77 135.731L359 86.581C359.299 86.3704 359.644 86.2358 360.007 86.1888C360.369 86.1417 360.737 86.1837 361.08 86.311C361.172 86.3547 361.259 86.4083 361.34 86.471C361.416 86.5278 361.483 86.5952 361.54 86.671C361.575 86.703 361.606 86.7401 361.63 86.781C361.672 86.828 361.706 86.8822 361.73 86.941C361.815 87.0629 361.879 87.198 361.92 87.341C361.955 87.4275 361.979 87.5183 361.99 87.611C361.994 87.6204 361.997 87.6306 361.997 87.641C361.997 87.6514 361.994 87.6616 361.99 87.671C362.017 87.7621 362.034 87.8561 362.04 87.951C362.12 88.101 362.13 88.231 362.13 88.361Z" fill="#455A64"/>
</g>
</g>
<path d="M361.12 86.31C360.777 86.1827 360.409 86.1408 360.047 86.1878C359.684 86.2348 359.339 86.3695 359.04 86.58L273.75 135.73C272.853 136.318 272.107 137.108 271.572 138.038C271.037 138.967 270.728 140.009 270.67 141.08V151.16L266.73 148.85V138.85C266.789 137.782 267.098 136.743 267.633 135.817C268.169 134.891 268.914 134.104 269.81 133.52L355.11 84.36C355.43 84.1293 355.807 83.9905 356.2 83.9588C356.593 83.9271 356.987 84.0036 357.34 84.18C357.9 84.5 360.46 86 361.12 86.31Z" fill="#B85C38"/>
<path d="M362.12 88.34C362.12 86.34 360.74 85.6 359.04 86.58L273.75 135.74C272.853 136.325 272.106 137.114 271.571 138.042C271.036 138.969 270.727 140.01 270.67 141.08V151.16L362.12 98.46V88.34Z" fill="#B85C38"/>
<g opacity="0.4">
<path opacity="0.4" d="M359 86.5799L273.72 135.74C272.812 136.303 272.062 137.087 271.54 138.02L267.63 135.76C268.138 134.838 268.875 134.063 269.77 133.51L355.1 84.3499C355.421 84.1183 355.8 83.9791 356.195 83.9474C356.59 83.9156 356.986 83.9926 357.34 84.1699C357.9 84.5099 360.45 85.9599 361.1 86.3099C360.755 86.1756 360.382 86.1299 360.016 86.1771C359.649 86.2242 359.299 86.3627 359 86.5799Z" fill="white"/>
</g>
<path opacity="0.15" d="M266.73 148.86V138.86C266.774 137.77 267.098 136.709 267.67 135.78L271.59 138.03C271.023 138.956 270.706 140.014 270.67 141.1V151.18L266.73 148.86Z" fill="black"/>
<path d="M343.55 99.82C342.996 100.258 342.551 100.818 342.249 101.456C341.947 102.094 341.797 102.794 341.81 103.5C341.81 104.98 342.59 105.73 343.55 105.18C344.104 104.74 344.549 104.178 344.85 103.538C345.152 102.898 345.303 102.197 345.29 101.49C345.29 99.9999 344.51 99.26 343.55 99.82Z" fill="#455A64"/>
<path d="M349.82 96.19C349.266 96.6299 348.82 97.1916 348.519 97.8316C348.217 98.4716 348.067 99.1726 348.08 99.88C348.08 101.36 348.86 102.11 349.82 101.55C350.377 101.113 350.825 100.552 351.127 99.9111C351.429 99.2704 351.577 98.5681 351.56 97.86C351.56 96.38 350.79 95.63 349.82 96.19Z" fill="#455A64"/>
<path d="M356.09 92.56C355.536 93.0003 355.091 93.5622 354.79 94.202C354.488 94.8419 354.338 95.5426 354.35 96.25C354.35 97.73 355.13 98.48 356.09 97.92C356.647 97.4843 357.095 96.925 357.399 96.2863C357.703 95.6476 357.854 94.9471 357.84 94.24C357.84 92.76 357.06 92 356.09 92.56Z" fill="#455A64"/>
<path opacity="0.9" d="M271.8 291.37L271.42 291.15L270.47 290.62L269.95 290.32L269.14 289.86C268.88 289.7 268.64 289.57 268.46 289.47C268.28 289.37 268.14 289.29 268.08 289.26C267.875 289.155 267.695 289.009 267.55 288.83C267.381 288.647 267.242 288.437 267.14 288.21C266.899 287.701 266.776 287.143 266.78 286.58V148.85L270.72 151.16V288.78C270.736 289.315 270.844 289.842 271.04 290.34C271.171 290.647 271.365 290.923 271.61 291.15C271.654 291.212 271.713 291.264 271.78 291.3C271.783 291.324 271.79 291.348 271.8 291.37Z" fill="#37474F"/>
<path d="M278.24 159.53C278.249 159.33 278.304 159.135 278.4 158.96L280.62 154.37C280.64 154.318 280.675 154.273 280.72 154.24V154.19C280.746 154.171 280.778 154.16 280.81 154.16C280.842 154.16 280.874 154.171 280.9 154.19C280.927 154.22 280.947 154.255 280.959 154.292C280.971 154.33 280.975 154.37 280.97 154.41V156C280.988 156.159 280.988 156.321 280.97 156.48C280.928 156.624 280.874 156.764 280.81 156.9L279.64 159.32L280.81 160.4C280.879 160.465 280.933 160.543 280.97 160.63C280.991 160.773 280.991 160.917 280.97 161.06V162.6C280.971 162.707 280.947 162.813 280.9 162.91C280.862 162.996 280.799 163.069 280.72 163.12C280.704 163.127 280.687 163.131 280.67 163.131C280.653 163.131 280.636 163.127 280.62 163.12L278.4 161.12C278.345 161.072 278.302 161.012 278.274 160.944C278.246 160.876 278.234 160.803 278.24 160.73V159.53Z" fill="#B85C38"/>
<path d="M286.35 148C286.389 147.844 286.446 147.693 286.52 147.55C286.589 147.4 286.705 147.277 286.85 147.2L287.68 146.72C287.691 146.709 287.704 146.7 287.719 146.694C287.734 146.688 287.749 146.685 287.765 146.685C287.781 146.685 287.796 146.688 287.811 146.694C287.826 146.7 287.839 146.709 287.85 146.72C287.878 146.749 287.9 146.783 287.914 146.821C287.928 146.859 287.933 146.9 287.93 146.94C287.939 146.996 287.939 147.054 287.93 147.11L284.13 163.31C284.096 163.463 284.042 163.611 283.97 163.75C283.903 163.906 283.787 164.035 283.64 164.12L282.84 164.58C282.816 164.6 282.786 164.612 282.755 164.612C282.724 164.612 282.694 164.6 282.67 164.58C282.614 164.517 282.585 164.434 282.59 164.35C282.586 164.293 282.586 164.237 282.59 164.18L286.35 148Z" fill="#B85C38"/>
<path d="M292.23 152.6C292.226 152.799 292.175 152.995 292.08 153.17L289.86 157.76C289.833 157.811 289.799 157.858 289.76 157.9H289.7C289.676 157.919 289.646 157.929 289.615 157.929C289.584 157.929 289.554 157.919 289.53 157.9C289.478 157.835 289.453 157.753 289.46 157.67V156.13C289.442 155.97 289.442 155.809 289.46 155.65C289.498 155.505 289.551 155.364 289.62 155.23L290.79 152.81L289.62 151.74C289.55 151.673 289.495 151.591 289.46 151.5C289.439 151.357 289.439 151.213 289.46 151.07V149.53C289.46 149.423 289.484 149.317 289.53 149.22C289.568 149.137 289.626 149.064 289.7 149.01H289.76C289.76 149.01 289.82 149.01 289.86 149.01L292.08 151.01C292.134 151.061 292.176 151.123 292.202 151.192C292.228 151.262 292.238 151.336 292.23 151.41V152.6Z" fill="#B85C38"/>
<path d="M298.39 151.53C298.422 151.506 298.46 151.492 298.5 151.492C298.54 151.492 298.579 151.506 298.61 151.53C298.643 151.568 298.668 151.613 298.683 151.661C298.699 151.709 298.704 151.76 298.7 151.81V153.5C298.7 153.632 298.669 153.762 298.61 153.88C298.567 153.991 298.49 154.086 298.39 154.15L297.39 154.75C297.362 154.777 297.324 154.793 297.285 154.793C297.246 154.793 297.208 154.777 297.18 154.75C297.146 154.714 297.121 154.671 297.105 154.625C297.09 154.578 297.085 154.529 297.09 154.48V152.78C297.091 152.648 297.122 152.518 297.18 152.4C297.223 152.294 297.296 152.204 297.39 152.14L298.39 151.53Z" fill="#B85C38"/>
<path d="M301.89 149.52C301.921 149.494 301.96 149.48 302 149.48C302.04 149.48 302.079 149.494 302.11 149.52C302.143 149.558 302.168 149.603 302.183 149.651C302.199 149.699 302.204 149.75 302.2 149.8V151.49C302.2 151.622 302.169 151.752 302.11 151.87C302.067 151.981 301.99 152.076 301.89 152.14L300.89 152.74C300.859 152.764 300.82 152.777 300.78 152.777C300.74 152.777 300.702 152.764 300.67 152.74C300.637 152.702 300.612 152.657 300.597 152.609C300.581 152.561 300.576 152.51 300.58 152.46V150.76C300.582 150.628 300.613 150.499 300.67 150.38C300.713 150.271 300.79 150.18 300.89 150.12L301.89 149.52Z" fill="#B85C38"/>
<path d="M305.39 147.5C305.418 147.473 305.456 147.457 305.495 147.457C305.534 147.457 305.572 147.473 305.6 147.5C305.633 147.538 305.658 147.583 305.673 147.631C305.689 147.679 305.694 147.73 305.69 147.78V149.47C305.689 149.605 305.658 149.738 305.6 149.86C305.555 149.964 305.482 150.054 305.39 150.12L304.34 150.72C304.311 150.745 304.274 150.759 304.235 150.759C304.196 150.759 304.159 150.745 304.13 150.72C304.097 150.682 304.072 150.637 304.057 150.589C304.041 150.541 304.036 150.49 304.04 150.44V148.74C304.043 148.608 304.073 148.479 304.13 148.36C304.175 148.256 304.248 148.166 304.34 148.1L305.39 147.5Z" fill="#B85C38"/>
<path d="M279.18 171.9L330.42 142.32C331.03 141.97 331.52 142.22 331.52 142.87C331.493 143.239 331.38 143.596 331.189 143.912C330.998 144.229 330.734 144.495 330.42 144.69L279.18 174.28C278.57 174.63 278.08 174.38 278.08 173.72C278.107 173.352 278.221 172.995 278.412 172.678C278.604 172.362 278.867 172.096 279.18 171.9Z" fill="#B85C38"/>
<path d="M295.62 190.89L346.86 161.3C347.47 160.95 347.96 161.2 347.96 161.86C347.933 162.228 347.819 162.585 347.628 162.901C347.437 163.218 347.174 163.484 346.86 163.68L295.62 193.26C295.01 193.61 294.52 193.36 294.52 192.71C294.547 192.341 294.66 191.984 294.851 191.668C295.043 191.351 295.306 191.085 295.62 190.89Z" fill="#E0E0E0"/>
<path d="M295.62 200.38L320.15 186.23C320.75 185.88 321.24 186.13 321.24 186.79C321.214 187.156 321.101 187.511 320.912 187.826C320.723 188.14 320.461 188.406 320.15 188.6L295.62 202.76C295.01 203.1 294.52 202.86 294.52 202.2C294.547 201.831 294.661 201.475 294.852 201.158C295.044 200.842 295.307 200.576 295.62 200.38Z" fill="#E0E0E0"/>
<path d="M295.62 209.87L320.15 195.72C320.75 195.38 321.24 195.62 321.24 196.28C321.212 196.647 321.099 197.003 320.91 197.319C320.721 197.635 320.461 197.902 320.15 198.1L295.62 212.25C295.01 212.6 294.52 212.35 294.52 211.69C294.547 211.321 294.661 210.965 294.852 210.648C295.044 210.332 295.307 210.065 295.62 209.87Z" fill="#E0E0E0"/>
<path d="M334.67 139.87L355.08 128C355.69 127.65 356.18 127.9 356.18 128.55C356.153 128.919 356.04 129.276 355.849 129.592C355.658 129.909 355.394 130.175 355.08 130.37L334.67 142.2C334.06 142.55 333.57 142.3 333.57 141.65C333.603 141.288 333.719 140.939 333.91 140.63C334.101 140.321 334.361 140.061 334.67 139.87Z" fill="#B85C38"/>
<path d="M279.18 276.31L330.42 246.73C331.03 246.38 331.52 246.63 331.52 247.28C331.493 247.649 331.38 248.006 331.189 248.322C330.998 248.639 330.734 248.905 330.42 249.1L279.18 278.69C278.57 279.03 278.08 278.79 278.08 278.13C278.107 277.762 278.221 277.405 278.412 277.088C278.604 276.772 278.867 276.506 279.18 276.31Z" fill="#B85C38"/>
<path d="M334.67 244.27L355.08 232.44C355.69 232.09 356.18 232.34 356.18 233C356.153 233.368 356.039 233.725 355.848 234.041C355.657 234.358 355.394 234.624 355.08 234.82L334.67 246.65C334.06 247 333.57 246.75 333.57 246.09C333.597 245.721 333.711 245.365 333.902 245.048C334.094 244.732 334.357 244.465 334.67 244.27Z" fill="#B85C38"/>
<path d="M334.67 215.85L355.08 204C355.69 203.65 356.18 203.9 356.18 204.55C356.153 204.919 356.04 205.276 355.849 205.592C355.658 205.909 355.394 206.175 355.08 206.37L334.67 218.2C334.06 218.55 333.57 218.3 333.57 217.65C333.6 217.285 333.715 216.932 333.906 216.619C334.097 216.306 334.359 216.043 334.67 215.85Z" fill="#B85C38"/>
<path d="M334.67 225.34L355.08 213.51C355.69 213.16 356.18 213.41 356.18 214.06C356.153 214.429 356.04 214.786 355.849 215.102C355.658 215.419 355.394 215.685 355.08 215.88L334.67 227.71C334.06 228.06 333.57 227.81 333.57 227.16C333.597 226.791 333.71 226.434 333.901 226.118C334.093 225.801 334.356 225.535 334.67 225.34Z" fill="#B85C38"/>
<path d="M279.18 266.83L330.42 237.24C331.03 236.9 331.52 237.14 331.52 237.8C331.493 238.169 331.379 238.525 331.188 238.842C330.997 239.158 330.734 239.424 330.42 239.62L279.18 269.2C278.57 269.55 278.08 269.3 278.08 268.65C278.107 268.281 278.22 267.924 278.411 267.608C278.603 267.291 278.866 267.025 279.18 266.83Z" fill="#F5F5F5"/>
<path d="M317.26 225.87L328.73 219.25C329.33 218.9 329.82 219.15 329.82 219.8C329.794 220.168 329.681 220.524 329.492 220.84C329.303 221.156 329.042 221.423 328.73 221.62L317.26 228.24C316.65 228.59 316.16 228.35 316.16 227.69C316.187 227.321 316.3 226.964 316.491 226.648C316.683 226.332 316.946 226.065 317.26 225.87Z" fill="#B85C38"/>
<path d="M279.18 181.42L309.07 164.15C309.67 163.8 310.16 164.05 310.16 164.7C310.134 165.068 310.021 165.424 309.832 165.74C309.643 166.056 309.382 166.323 309.07 166.52L279.18 183.79C278.57 184.14 278.08 183.89 278.08 183.24C278.107 182.871 278.22 182.514 278.411 182.198C278.603 181.881 278.866 181.615 279.18 181.42Z" fill="#B85C38"/>
<path opacity="0.6" d="M279.18 181.42L309.07 164.15C309.67 163.8 310.16 164.05 310.16 164.7C310.134 165.068 310.021 165.424 309.832 165.74C309.643 166.056 309.382 166.323 309.07 166.52L279.18 183.79C278.57 184.14 278.08 183.89 278.08 183.24C278.107 182.871 278.22 182.514 278.411 182.198C278.603 181.881 278.866 181.615 279.18 181.42Z" fill="white"/>
<path d="M279.18 190.89L289.32 185C289.92 184.65 290.41 184.9 290.41 185.56C290.382 185.927 290.269 186.283 290.08 186.599C289.891 186.915 289.631 187.182 289.32 187.38L279.18 193.24C278.57 193.59 278.08 193.34 278.08 192.68C278.112 192.317 278.228 191.966 278.419 191.655C278.61 191.345 278.87 191.083 279.18 190.89Z" fill="#B85C38"/>
<path opacity="0.6" d="M279.18 190.89L289.32 185C289.92 184.65 290.41 184.9 290.41 185.56C290.382 185.927 290.269 186.283 290.08 186.599C289.891 186.915 289.631 187.182 289.32 187.38L279.18 193.24C278.57 193.59 278.08 193.34 278.08 192.68C278.112 192.317 278.228 191.966 278.419 191.655C278.61 191.345 278.87 191.083 279.18 190.89Z" fill="white"/>
<path d="M279.18 200.39L289.32 194.52C289.92 194.17 290.41 194.42 290.41 195.08C290.382 195.447 290.269 195.803 290.08 196.119C289.891 196.435 289.631 196.702 289.32 196.9L279.18 202.76C278.57 203.11 278.08 202.86 278.08 202.2C278.107 201.833 278.22 201.477 278.411 201.162C278.603 200.847 278.866 200.583 279.18 200.39Z" fill="#B85C38"/>
<path opacity="0.6" d="M279.18 200.39L289.32 194.52C289.92 194.17 290.41 194.42 290.41 195.08C290.382 195.447 290.269 195.803 290.08 196.119C289.891 196.435 289.631 196.702 289.32 196.9L279.18 202.76C278.57 203.11 278.08 202.86 278.08 202.2C278.107 201.833 278.22 201.477 278.411 201.162C278.603 200.847 278.866 200.583 279.18 200.39Z" fill="white"/>
<path d="M279.18 209.88L289.32 204C289.92 203.65 290.41 203.89 290.41 204.55C290.384 204.918 290.271 205.274 290.082 205.59C289.893 205.906 289.632 206.173 289.32 206.37L279.18 212.23C278.57 212.58 278.08 212.33 278.08 211.68C278.11 211.315 278.225 210.962 278.416 210.649C278.607 210.336 278.869 210.073 279.18 209.88Z" fill="#B85C38"/>
<path opacity="0.6" d="M279.18 209.88L289.32 204C289.92 203.65 290.41 203.89 290.41 204.55C290.384 204.918 290.271 205.274 290.082 205.59C289.893 205.906 289.632 206.173 289.32 206.37L279.18 212.23C278.57 212.58 278.08 212.33 278.08 211.68C278.11 211.315 278.225 210.962 278.416 210.649C278.607 210.336 278.869 210.073 279.18 209.88Z" fill="white"/>
<path d="M279.18 219.37L289.32 213.51C289.92 213.16 290.41 213.41 290.41 214.06C290.384 214.428 290.271 214.784 290.082 215.1C289.893 215.416 289.632 215.683 289.32 215.88L279.18 221.74C278.57 222.09 278.08 221.84 278.08 221.19C278.107 220.821 278.22 220.464 278.411 220.148C278.603 219.831 278.866 219.565 279.18 219.37Z" fill="#B85C38"/>
<path opacity="0.6" d="M279.18 219.37L289.32 213.51C289.92 213.16 290.41 213.41 290.41 214.06C290.384 214.428 290.271 214.784 290.082 215.1C289.893 215.416 289.632 215.683 289.32 215.88L279.18 221.74C278.57 222.09 278.08 221.84 278.08 221.19C278.107 220.821 278.22 220.464 278.411 220.148C278.603 219.831 278.866 219.565 279.18 219.37Z" fill="white"/>
<path d="M313.31 161.7L326.31 154.22C326.91 153.87 327.41 154.12 327.41 154.77C327.382 155.138 327.268 155.495 327.077 155.811C326.886 156.127 326.623 156.394 326.31 156.59L313.31 164.07C312.71 164.42 312.22 164.17 312.22 163.52C312.246 163.152 312.359 162.796 312.548 162.48C312.737 162.164 312.998 161.897 313.31 161.7Z" fill="#B85C38"/>
<path opacity="0.6" d="M313.31 161.7L326.31 154.22C326.91 153.87 327.41 154.12 327.41 154.77C327.382 155.138 327.268 155.495 327.077 155.811C326.886 156.127 326.623 156.394 326.31 156.59L313.31 164.07C312.71 164.42 312.22 164.17 312.22 163.52C312.246 163.152 312.359 162.796 312.548 162.48C312.737 162.164 312.998 161.897 313.31 161.7Z" fill="white"/>
<path d="M308 212.23L337.84 195C338.44 194.65 338.93 194.9 338.93 195.56C338.902 195.927 338.789 196.283 338.6 196.599C338.411 196.915 338.151 197.182 337.84 197.38L308 214.61C307.4 214.96 306.9 214.71 306.9 214.05C306.927 213.682 307.041 213.325 307.232 213.008C307.424 212.692 307.687 212.426 308 212.23Z" fill="#F5F5F5"/>
<path d="M325.19 211.81L355.08 194.54C355.69 194.19 356.18 194.44 356.18 195.09C356.154 195.459 356.04 195.816 355.849 196.132C355.658 196.448 355.394 196.715 355.08 196.91L325.19 214.18C324.59 214.53 324.1 214.28 324.1 213.63C324.126 213.262 324.239 212.906 324.428 212.59C324.617 212.274 324.878 212.007 325.19 211.81Z" fill="#F5F5F5"/>
<path d="M342.09 192.51L355.09 185.03C355.7 184.68 356.19 184.93 356.19 185.59C356.163 185.958 356.049 186.315 355.858 186.632C355.667 186.948 355.404 187.214 355.09 187.41L342.09 194.89C341.48 195.23 340.99 194.99 340.99 194.33C341.017 193.962 341.131 193.605 341.322 193.288C341.513 192.972 341.776 192.706 342.09 192.51Z" fill="#F5F5F5"/>
<path d="M295.62 181.4L325.51 164.13C326.11 163.78 326.6 164.03 326.6 164.69C326.572 165.057 326.459 165.413 326.27 165.729C326.081 166.045 325.821 166.312 325.51 166.51L295.62 183.77C295.01 184.12 294.52 183.88 294.52 183.22C294.547 182.851 294.661 182.495 294.852 182.178C295.044 181.862 295.307 181.595 295.62 181.4Z" fill="#B85C38"/>
<path opacity="0.6" d="M295.62 181.4L325.51 164.13C326.11 163.78 326.6 164.03 326.6 164.69C326.572 165.057 326.459 165.413 326.27 165.729C326.081 166.045 325.821 166.312 325.51 166.51L295.62 183.77C295.01 184.12 294.52 183.88 294.52 183.22C294.547 182.851 294.661 182.495 294.852 182.178C295.044 181.862 295.307 181.595 295.62 181.4Z" fill="white"/>
<path d="M329.75 161.68L342.75 154.2C343.36 153.85 343.85 154.1 343.85 154.75C343.823 155.119 343.71 155.476 343.519 155.792C343.328 156.109 343.064 156.375 342.75 156.57L329.75 164.05C329.15 164.4 328.66 164.15 328.66 163.5C328.686 163.132 328.799 162.776 328.988 162.46C329.177 162.144 329.438 161.877 329.75 161.68Z" fill="#B85C38"/>
<path opacity="0.6" d="M329.75 161.68L342.75 154.2C343.36 153.85 343.85 154.1 343.85 154.75C343.823 155.119 343.71 155.476 343.519 155.792C343.328 156.109 343.064 156.375 342.75 156.57L329.75 164.05C329.15 164.4 328.66 164.15 328.66 163.5C328.686 163.132 328.799 162.776 328.988 162.46C329.177 162.144 329.438 161.877 329.75 161.68Z" fill="white"/>
<path d="M407.937 164.922V149.475L394.964 148.336C394.777 148.32 394.59 148.358 394.424 148.444L381.478 155.876C381.356 155.949 381.251 156.049 381.172 156.168C381.093 156.287 381.041 156.422 381.02 156.564C380.999 156.705 381.01 156.85 381.052 156.986C381.094 157.123 381.166 157.249 381.262 157.354L395.018 172.272L407.937 164.922Z" fill="#B85C38"/>
<path d="M395.018 172.326L381.262 157.408C381.128 157.268 381.041 157.089 381.011 156.897C380.982 156.705 381.011 156.508 381.097 156.333C381.182 156.159 381.319 156.015 381.489 155.921C381.658 155.827 381.853 155.788 382.045 155.808L395.018 156.947V172.326Z" fill="#37474F"/>
<path d="M407.923 149.475L395.018 156.893L382.045 155.754C381.894 155.719 381.737 155.719 381.586 155.754L394.41 148.376C394.582 148.291 394.773 148.253 394.964 148.268L407.923 149.475Z" fill="#B85C38"/>
<path d="M407.923 149.475L395.018 156.893L382.045 155.754C381.894 155.719 381.737 155.719 381.586 155.754L394.41 148.376C394.582 148.291 394.773 148.253 394.964 148.268L407.923 149.475Z" fill="#455A64"/>
<path d="M395.045 139.466C395.134 137.837 395.603 136.251 396.414 134.838C397.225 133.424 398.357 132.222 399.716 131.329L403.523 129.119C404.973 128.383 406.575 128 408.2 128C409.825 128 411.427 128.383 412.878 129.119L453.47 152.662C454.832 153.554 455.965 154.755 456.779 156.168C457.593 157.582 458.064 159.168 458.154 160.799V207.899C458.067 209.53 457.598 211.117 456.784 212.532C455.969 213.946 454.834 215.146 453.47 216.036L449.663 218.246C448.215 218.988 446.612 219.375 444.986 219.375C443.36 219.375 441.757 218.988 440.308 218.246L428.334 211.303L412.756 202.257L399.716 194.703C398.355 193.812 397.223 192.61 396.411 191.196C395.6 189.782 395.132 188.196 395.045 186.566V139.466Z" fill="#37474F"/>
<path d="M458.154 207.912C458.067 209.544 457.597 211.131 456.783 212.545C455.969 213.959 454.834 215.16 453.47 216.049L449.663 218.26C448.344 218.928 446.9 219.307 445.424 219.373C443.949 219.438 442.477 219.188 441.104 218.64C443.318 219.481 444.992 218.233 444.992 215.548V168.448C444.944 166.811 444.479 165.215 443.642 163.81L456.804 156.174C457.641 157.579 458.106 159.176 458.154 160.812V207.912Z" fill="#263238"/>
<path d="M395.193 138.137C395.747 136.143 397.556 135.506 399.716 136.78L440.322 160.337C441.704 161.195 442.84 162.401 443.615 163.836L456.764 156.214C455.988 154.776 454.853 153.565 453.47 152.702L412.891 129.145C411.44 128.41 409.838 128.027 408.213 128.027C406.589 128.027 404.986 128.41 403.536 129.145L399.716 131.369C398.546 132.132 397.542 133.124 396.764 134.287C395.987 135.451 395.453 136.76 395.193 138.137Z" fill="#455A64"/>
<path d="M429.05 175.459C430.008 170.577 429.617 166.088 427.7 163.538C427.289 162.94 426.741 162.45 426.102 162.11C425.463 161.77 424.751 161.59 424.028 161.585H423.69C422.4 161.712 421.165 162.18 420.113 162.942C417.413 157.815 414.713 154.669 412.783 154.669H412.5C412.24 154.719 411.996 154.828 411.785 154.988C411.575 155.148 411.404 155.354 411.285 155.591C410.353 157.151 410.299 160.528 411.001 164.962C409.327 164.49 407.541 164.619 405.952 165.328C405.444 165.627 405.028 166.061 404.752 166.583C404.475 167.106 404.349 167.695 404.386 168.285C404.386 171.228 406.965 175.269 410.974 179.134C410.016 184.017 410.407 188.505 412.324 191.055C412.739 191.603 413.257 192.064 413.849 192.411C414.497 192.789 415.234 192.985 415.982 192.981C416.466 192.978 416.948 192.909 417.413 192.777C418.342 192.473 419.214 192.015 419.992 191.421C422.165 195.49 424.338 198.433 426.08 199.45C426.486 199.703 426.952 199.843 427.43 199.857C427.519 199.87 427.61 199.87 427.7 199.857C427.961 199.806 428.207 199.697 428.42 199.537C428.632 199.378 428.806 199.172 428.928 198.934C429.86 197.375 429.9 193.998 429.198 189.536C429.906 189.67 430.624 189.743 431.345 189.753C432.305 189.792 433.26 189.577 434.112 189.129C434.619 188.83 435.034 188.395 435.31 187.873C435.587 187.351 435.714 186.763 435.678 186.173C435.637 183.352 433.059 179.311 429.05 175.459ZM424.419 183.311C423.967 184.128 423.471 184.921 422.934 185.685C422.044 185.251 421.099 184.762 420.1 184.179C419.101 183.596 418.142 182.999 417.238 182.376C416.711 181.019 416.185 179.582 415.685 178.09C415.186 176.598 414.754 175.215 414.335 173.859C414.713 173.018 415.118 172.177 415.577 171.35C416.036 170.523 416.549 169.709 417.049 168.977C417.953 169.411 418.898 169.899 419.897 170.482C420.896 171.065 421.949 171.73 422.907 172.381C423.434 173.737 423.947 175.093 424.46 176.653C424.973 178.212 425.337 179.365 425.702 180.64C425.351 181.521 424.905 182.389 424.419 183.311ZM425.769 176.381C425.472 175.486 425.162 174.605 424.851 173.75C425.756 174.428 426.606 175.106 427.403 175.839C427.16 176.775 426.876 177.737 426.525 178.7C426.255 177.941 426.012 177.168 425.742 176.381H425.769ZM420.127 168.732C419.434 168.335 418.759 167.968 418.102 167.634C418.685 166.905 419.327 166.225 420.019 165.6C420.653 166.888 421.301 168.312 421.949 169.845C421.328 169.465 420.721 169.085 420.1 168.732H420.127ZM414.389 169.926C414.146 170.373 413.903 170.821 413.687 171.282C413.323 169.858 413.012 168.57 412.77 167.281C413.686 167.542 414.588 167.854 415.469 168.217C415.037 168.827 414.686 169.329 414.403 169.926H414.389ZM414.389 178.361C414.7 179.27 415.01 180.151 415.334 181.074C414.376 180.355 413.471 179.609 412.635 178.863C412.898 177.83 413.213 176.812 413.579 175.812C413.849 176.625 414.119 177.48 414.403 178.321L414.389 178.361ZM419.897 185.929C420.586 186.322 421.247 186.675 421.909 187.014C421.353 187.716 420.743 188.373 420.086 188.98C419.465 187.732 418.844 186.376 418.237 184.912C418.804 185.251 419.357 185.603 419.924 185.929H419.897ZM425.634 184.735C425.918 184.234 426.174 183.732 426.417 183.216C426.809 184.708 427.133 186.119 427.389 187.421C426.444 187.151 425.515 186.825 424.608 186.444C424.986 185.902 425.337 185.332 425.661 184.735H425.634ZM423.798 171.174C422.894 168.855 421.949 166.725 421.004 164.813C421.683 164.303 422.446 163.918 423.258 163.674C423.632 163.569 424.018 163.514 424.406 163.511C424.949 163.498 425.486 163.634 425.958 163.904C426.314 164.119 426.625 164.4 426.876 164.732C428.159 166.441 428.51 170.034 427.7 174.225C426.47 173.134 425.186 172.106 423.852 171.146L423.798 171.174ZM416.333 166.847C415.052 166.267 413.73 165.782 412.378 165.396C411.703 161.192 411.784 158.303 412.459 157.178C412.506 157.044 412.585 156.923 412.688 156.827C412.792 156.73 412.917 156.66 413.053 156.622H413.174C413.435 156.636 413.687 156.721 413.903 156.866C415.186 157.612 417.035 160.026 419.047 163.796C418.044 164.703 417.143 165.717 416.36 166.82L416.333 166.847ZM412.796 173.181C412.186 174.624 411.686 176.11 411.298 177.629C407.842 174.266 405.777 171.011 405.777 169.017C405.762 168.648 405.851 168.283 406.032 167.962C406.213 167.64 406.48 167.377 406.803 167.2C407.514 166.844 408.304 166.676 409.098 166.712C409.842 166.722 410.584 166.808 411.312 166.969C411.703 168.827 412.203 170.943 412.823 173.154L412.796 173.181ZM416.32 183.65C417.211 185.874 418.129 187.949 419.02 189.848C418.085 190.592 416.964 191.062 415.78 191.204C415.264 191.256 414.744 191.172 414.271 190.96C413.797 190.749 413.387 190.417 413.08 189.997C411.798 188.275 411.447 184.681 412.257 180.504C413.562 181.619 414.927 182.66 416.347 183.623L416.32 183.65ZM423.636 187.868C424.946 188.47 426.3 188.969 427.686 189.36C428.375 193.578 428.294 196.48 427.619 197.619C427.559 197.74 427.473 197.846 427.368 197.93C427.263 198.014 427.142 198.075 427.011 198.107C425.783 198.324 423.474 195.571 420.95 190.784C421.962 189.898 422.872 188.902 423.663 187.814L423.636 187.868ZM427.254 181.358C427.802 179.968 428.254 178.54 428.604 177.086C432.06 180.45 434.125 183.705 434.125 185.698C434.137 186.067 434.047 186.431 433.866 186.751C433.685 187.072 433.42 187.336 433.099 187.515C431.711 188.088 430.172 188.178 428.726 187.773C428.442 185.766 427.902 183.61 427.281 181.331L427.254 181.358Z" fill="#61DAFB"/>
<path d="M422.759 178.917C422.759 180.952 421.531 181.887 420.059 181.006C419.23 180.4 418.554 179.607 418.085 178.69C417.616 177.774 417.368 176.76 417.359 175.73C417.359 173.71 418.588 172.774 420.059 173.655C420.886 174.26 421.561 175.051 422.03 175.965C422.499 176.878 422.749 177.889 422.759 178.917Z" fill="#61DAFB"/>
<g opacity="0.65">
<path opacity="0.65" d="M429.05 175.459C430.008 170.577 429.617 166.088 427.7 163.538C427.289 162.94 426.741 162.45 426.102 162.11C425.463 161.77 424.751 161.59 424.028 161.585H423.69C422.4 161.712 421.165 162.18 420.113 162.942C417.413 157.815 414.713 154.669 412.783 154.669H412.5C412.24 154.719 411.996 154.828 411.785 154.988C411.575 155.148 411.404 155.354 411.285 155.591C410.353 157.151 410.299 160.528 411.001 164.962C409.327 164.49 407.541 164.619 405.952 165.328C405.444 165.627 405.028 166.061 404.752 166.583C404.475 167.106 404.349 167.695 404.386 168.285C404.386 171.228 406.965 175.269 410.974 179.134C410.016 184.017 410.407 188.505 412.324 191.055C412.739 191.603 413.257 192.064 413.849 192.411C414.497 192.789 415.234 192.985 415.982 192.981C416.466 192.978 416.948 192.909 417.413 192.777C418.342 192.473 419.214 192.015 419.992 191.421C422.165 195.49 424.338 198.433 426.08 199.45C426.486 199.703 426.952 199.843 427.43 199.857C427.519 199.87 427.61 199.87 427.7 199.857C427.961 199.806 428.207 199.697 428.42 199.537C428.632 199.378 428.806 199.172 428.928 198.934C429.86 197.375 429.9 193.998 429.198 189.536C429.906 189.67 430.624 189.743 431.345 189.753C432.305 189.792 433.26 189.577 434.112 189.129C434.619 188.83 435.034 188.395 435.31 187.873C435.587 187.351 435.714 186.763 435.678 186.173C435.637 183.352 433.059 179.311 429.05 175.459ZM424.419 183.311C423.967 184.128 423.471 184.921 422.934 185.685C422.044 185.251 421.099 184.762 420.1 184.179C419.101 183.596 418.142 182.999 417.238 182.376C416.711 181.019 416.185 179.582 415.685 178.09C415.186 176.598 414.754 175.215 414.335 173.859C414.713 173.018 415.118 172.177 415.577 171.35C416.036 170.523 416.549 169.709 417.049 168.977C417.953 169.411 418.898 169.899 419.897 170.482C420.896 171.065 421.949 171.73 422.907 172.381C423.434 173.737 423.947 175.093 424.46 176.653C424.973 178.212 425.337 179.365 425.702 180.64C425.351 181.521 424.905 182.389 424.419 183.311ZM425.769 176.381C425.472 175.486 425.162 174.605 424.851 173.75C425.756 174.428 426.606 175.106 427.403 175.839C427.16 176.775 426.876 177.737 426.525 178.7C426.255 177.941 426.012 177.168 425.742 176.381H425.769ZM420.127 168.732C419.434 168.335 418.759 167.968 418.102 167.634C418.685 166.905 419.327 166.225 420.019 165.6C420.653 166.888 421.301 168.312 421.949 169.845C421.328 169.465 420.721 169.085 420.1 168.732H420.127ZM414.389 169.926C414.146 170.373 413.903 170.821 413.687 171.282C413.323 169.858 413.012 168.57 412.77 167.281C413.686 167.542 414.588 167.854 415.469 168.217C415.037 168.827 414.686 169.329 414.403 169.926H414.389ZM414.389 178.361C414.7 179.27 415.01 180.151 415.334 181.074C414.376 180.355 413.471 179.609 412.635 178.863C412.898 177.83 413.213 176.812 413.579 175.812C413.849 176.625 414.119 177.48 414.403 178.321L414.389 178.361ZM419.897 185.929C420.586 186.322 421.247 186.675 421.909 187.014C421.353 187.716 420.743 188.373 420.086 188.98C419.465 187.732 418.844 186.376 418.237 184.912C418.804 185.251 419.357 185.603 419.924 185.929H419.897ZM425.634 184.735C425.918 184.234 426.174 183.732 426.417 183.216C426.809 184.708 427.133 186.119 427.389 187.421C426.444 187.151 425.515 186.825 424.608 186.444C424.986 185.902 425.337 185.332 425.661 184.735H425.634ZM423.798 171.174C422.894 168.855 421.949 166.725 421.004 164.813C421.683 164.303 422.446 163.918 423.258 163.674C423.632 163.569 424.018 163.514 424.406 163.511C424.949 163.498 425.486 163.634 425.958 163.904C426.314 164.119 426.625 164.4 426.876 164.732C428.159 166.441 428.51 170.034 427.7 174.225C426.47 173.134 425.186 172.106 423.852 171.146L423.798 171.174ZM416.333 166.847C415.052 166.267 413.73 165.782 412.378 165.396C411.703 161.192 411.784 158.303 412.459 157.178C412.506 157.044 412.585 156.923 412.688 156.827C412.792 156.73 412.917 156.66 413.053 156.622H413.174C413.435 156.636 413.687 156.721 413.903 156.866C415.186 157.612 417.035 160.026 419.047 163.796C418.044 164.703 417.143 165.717 416.36 166.82L416.333 166.847ZM412.796 173.181C412.186 174.624 411.686 176.11 411.298 177.629C407.842 174.266 405.777 171.011 405.777 169.017C405.762 168.648 405.851 168.283 406.032 167.962C406.213 167.64 406.48 167.377 406.803 167.2C407.514 166.844 408.304 166.676 409.098 166.712C409.842 166.722 410.584 166.808 411.312 166.969C411.703 168.827 412.203 170.943 412.823 173.154L412.796 173.181ZM416.32 183.65C417.211 185.874 418.129 187.949 419.02 189.848C418.085 190.592 416.964 191.062 415.78 191.204C415.264 191.256 414.744 191.172 414.271 190.96C413.797 190.749 413.387 190.417 413.08 189.997C411.798 188.275 411.447 184.681 412.257 180.504C413.562 181.619 414.927 182.66 416.347 183.623L416.32 183.65ZM423.636 187.868C424.946 188.47 426.3 188.969 427.686 189.36C428.375 193.578 428.294 196.48 427.619 197.619C427.559 197.74 427.473 197.846 427.368 197.93C427.263 198.014 427.142 198.075 427.011 198.107C425.783 198.324 423.474 195.571 420.95 190.784C421.962 189.898 422.872 188.902 423.663 187.814L423.636 187.868ZM427.254 181.358C427.802 179.968 428.254 178.54 428.604 177.086C432.06 180.45 434.125 183.705 434.125 185.698C434.137 186.067 434.047 186.431 433.866 186.751C433.685 187.072 433.42 187.336 433.099 187.515C431.711 188.088 430.172 188.178 428.726 187.773C428.442 185.766 427.902 183.61 427.281 181.331L427.254 181.358Z" fill="#61DAFB"/>
<path opacity="0.65" d="M422.759 178.917C422.759 180.952 421.531 181.887 420.059 181.006C419.23 180.4 418.554 179.607 418.085 178.69C417.616 177.774 417.368 176.76 417.359 175.73C417.359 173.71 418.588 172.774 420.059 173.655C420.887 174.26 421.561 175.051 422.03 175.965C422.499 176.878 422.749 177.889 422.759 178.917Z" fill="#61DAFB"/>
</g>
</svg>
